name C:\Users\r0593348\3dpredictsim\Results\MidTarsalJoint\Fal_s1_bCst_PF_Natali2010_ls150_MT_k1000_MTP_T2_ig24.mot
datacolumns 128
datarows 4
range 0.00000000 0.03351127
endheader
time	pelvis_tilt	pelvis_list	pelvis_rotation	pelvis_tx	pelvis_ty	pelvis_tz	hip_flexion_l	hip_adduction_l	hip_rotation_l	hip_flexion_r	hip_adduction_r	hip_rotation_r	knee_angle_l	knee_angle_r	ankle_angle_l	ankle_angle_r	subtalar_angle_l	subtalar_angle_r	mtj_angle_l	mtj_angle_r	mtp_angle_l	mtp_angle_r	lumbar_extension	lumbar_bending	lumbar_rotation	arm_flex_l	arm_add_l	arm_rot_l	arm_flex_r	arm_add_r	arm_rot_r	elbow_flex_l	elbow_flex_r	pro_sup_l	pro_sup_r	glut_med1_l/activation	glut_med2_l/activation	glut_med3_l/activation	glut_min1_l/activation	glut_min2_l/activation	glut_min3_l/activation	semimem_l/activation	semiten_l/activation	bifemlh_l/activation	bifemsh_l/activation	sar_l/activation	add_long_l/activation	add_brev_l/activation	add_mag1_l/activation	add_mag2_l/activation	add_mag3_l/activation	tfl_l/activation	pect_l/activation	grac_l/activation	glut_max1_l/activation	glut_max2_l/activation	glut_max3_l/activation	iliacus_l/activation	psoas_l/activation	quad_fem_l/activation	gem_l/activation	peri_l/activation	rect_fem_l/activation	vas_med_l/activation	vas_int_l/activation	vas_lat_l/activation	med_gas_l/activation	lat_gas_l/activation	soleus_l/activation	tib_post_l/activation	flex_dig_l/activation	flex_hal_l/activation	tib_ant_l/activation	per_brev_l/activation	per_long_l/activation	per_tert_l/activation	ext_dig_l/activation	ext_hal_l/activation	ercspn_l/activation	intobl_l/activation	extobl_l/activation	glut_med1_r/activation	glut_med2_r/activation	glut_med3_r/activation	glut_min1_r/activation	glut_min2_r/activation	glut_min3_r/activation	semimem_r/activation	semiten_r/activation	bifemlh_r/activation	bifemsh_r/activation	sar_r/activation	add_long_r/activation	add_brev_r/activation	add_mag1_r/activation	add_mag2_r/activation	add_mag3_r/activation	tfl_r/activation	pect_r/activation	grac_r/activation	glut_max1_r/activation	glut_max2_r/activation	glut_max3_r/activation	iliacus_r/activation	psoas_r/activation	quad_fem_r/activation	gem_r/activation	peri_r/activation	rect_fem_r/activation	vas_med_r/activation	vas_int_r/activation	vas_lat_r/activation	med_gas_r/activation	lat_gas_r/activation	soleus_r/activation	tib_post_r/activation	flex_dig_r/activation	flex_hal_r/activation	tib_ant_r/activation	per_brev_r/activation	per_long_r/activation	per_tert_r/activation	ext_dig_r/activation	ext_hal_r/activation	ercspn_r/activation	intobl_r/activation	extobl_r/activation	
          0.00000000	         -2.92890461	         -1.98924994	          4.75338307	          0.00000000	          0.92039922	         -0.00199099	        -17.41661921	         -0.75061435	          6.64144255	         29.92664331	          3.07561519	         -2.57488583	         -4.98639386	        -12.46674877	         -0.05126116	          6.36378296	          7.34120860	         -3.81001082	          1.74562670	         -0.00999808	         17.86542694	         -0.94504210	         -2.35606896	          0.13878950	         -1.92638973	          4.88554548	        -13.45016676	         15.35370881	         -4.23202564	        -13.45462327	          5.88443962	         33.39571462	         17.88810278	         86.51662706	         86.51662706	          0.32077234	          0.11741205	          0.08344824	          0.35824389	          0.23124791	          0.12698514	          0.05000026	          0.05000008	          0.05000008	          0.07137386	          0.11884903	          0.05000004	          0.05000003	          0.05000006	          0.05000016	          0.05000013	          0.36319917	          0.05000022	          0.05000023	          0.05001969	          0.05000123	          0.05000029	          0.45119541	          0.66106734	          0.05000024	          0.05001353	          0.06040843	          0.25639439	          0.05000016	          0.05000017	          0.05000017	          0.33750221	          0.46195237	          0.32599444	          0.29560398	          0.31600730	          0.38943174	          0.05000002	          0.05048889	          0.11986713	          0.05000011	          0.05000002	          0.05000011	          0.05000000	          0.05000000	          0.05000000	          0.07035013	          0.05000013	          0.05930828	          0.05000010	          0.05000014	          0.05000056	          0.11549208	          0.07035027	          0.24075902	          0.05011316	          0.05000288	          0.13941072	          0.17111690	          0.13950734	          0.12231692	          0.10539601	          0.05000902	          0.05370232	          0.10458813	          0.05930828	          0.05932241	          0.09231183	          0.05000011	          0.05000032	          0.19111939	          0.05000020	          0.05000099	          0.05000004	          0.05000027	          0.05000033	          0.05000019	          0.05000003	          0.05000007	          0.05000001	          0.05930855	          0.05000138	          0.05576771	          0.43046253	          0.24538610	          0.19685737	          0.08673135	          0.41036633	          0.14108338	          0.07035040	          0.13313792	          0.11893094	
          0.01117042	         -2.93000270	         -2.08410243	          5.06047369	          0.01645730	          0.91938993	         -0.00179343	        -17.37708601	         -1.05240623	          6.44583891	         29.39465553	          3.44047006	         -2.38616136	         -6.73258164	        -12.11089101	         -0.59722353	          5.99523280	          8.29644736	         -4.19850785	          1.45229917	         -0.00503510	         19.20761554	         -0.93779738	         -2.18559478	          0.34131920	         -2.00105380	          4.68377332	        -13.45603681	         15.74457170	         -5.03207803	        -13.45147155	          5.57069752	         34.56241436	         17.42469545	         86.51662706	         86.51662706	          0.27042672	          0.09898386	          0.07035078	          0.30201645	          0.19495285	          0.10705444	          0.05000070	          0.05000016	          0.05000009	          0.06017152	          0.10019537	          0.09869823	          0.06777562	          0.05000111	          0.05000221	          0.05000060	          0.30619400	          0.05003255	          0.05000152	          0.05000260	          0.05000189	          0.05000186	          0.38124795	          0.63204452	          0.05000031	          0.05000027	          0.05092716	          0.21615256	          0.05000236	          0.05000194	          0.05000137	          0.28453018	          0.38944753	          0.30548539	          0.29149862	          0.29109639	          0.38114604	          0.05000001	          0.05840996	          0.11514285	          0.05000011	          0.05000002	          0.05000011	          0.05000001	          0.05000019	          0.05002829	          0.05930866	          0.05930868	          0.05000012	          0.05930869	          0.05930869	          0.05930843	          0.10400801	          0.05930869	          0.22420972	          0.05000012	          0.05000011	          0.13422303	          0.29578490	          0.11761172	          0.14374594	          0.10929246	          0.05000007	          0.06487456	          0.08817519	          0.05000030	          0.05001168	          0.15393762	          0.05000049	          0.05000007	          0.22604677	          0.25589010	          0.13153460	          0.05350625	          0.14415643	          0.14185205	          0.12739128	          0.05000687	          0.05000489	          0.05424838	          0.05000001	          0.05000024	          0.05000011	          0.54579206	          0.26791675	          0.16596005	          0.21981767	          0.47974559	          0.23029595	          0.05930868	          0.11224151	          0.10026436	
          0.02234085	         -2.92634281	         -2.17869960	          5.34176043	          0.03327778	          0.91842075	         -0.00158885	        -17.24115293	         -1.35209825	          6.24593852	         28.76796305	          3.78227586	         -2.15151924	         -8.65791154	        -12.32947400	         -1.27670621	          5.36355963	          9.24105427	         -4.56765301	          1.09697493	         -0.02545427	         20.55719841	         -0.93040848	         -1.98808625	          0.55330784	         -2.06779649	          4.39704877	        -13.46354653	         16.06530100	         -5.87833607	        -13.45099975	          5.29344975	         35.71195600	         17.02934293	         86.51662706	         86.51662706	          0.22798242	          0.08344804	          0.05930902	          0.25461408	          0.16435440	          0.09025192	          0.05000106	          0.05000024	          0.05000035	          0.05072743	          0.08446946	          0.19186184	          0.05930276	          0.05931310	          0.05930832	          0.05930904	          0.25813594	          0.09485310	          0.05000114	          0.05000123	          0.05000089	          0.05000154	          0.32140991	          0.57879725	          0.05000028	          0.05930853	          0.05930865	          0.18222747	          0.13440757	          0.14904441	          0.14214871	          0.23987227	          0.32832252	          0.25753851	          0.24961532	          0.24540812	          0.32132429	          0.05000001	          0.05000004	          0.12682084	          0.05000003	          0.05000000	          0.05000006	          0.05690581	          0.06505985	          0.05430186	          0.05000000	          0.05000002	          0.11106077	          0.05000002	          0.05000002	          0.05000003	          0.08768367	          0.05000015	          0.18901932	          0.05000006	          0.05823576	          0.11315643	          0.25125242	          0.32425026	          0.21467263	          0.12383549	          0.05000023	          0.05477678	          0.12147046	          0.05547358	          0.09091813	          0.12977691	          0.05000004	          0.07034830	          0.44172309	          0.21572735	          0.11088984	          0.05948292	          0.15570022	          0.15821284	          0.13310778	          0.05000013	          0.05931461	          0.05000001	          0.05930889	          0.05000650	          0.05930886	          0.49337082	          0.31536093	          0.20387905	          0.18531663	          0.43736369	          0.19415030	          0.05000000	          0.09462485	          0.08452755	
          0.03351127	         -2.91873258	         -2.27626721	          5.59539528	          0.05037058	          0.91749498	         -0.00140062	        -17.02879267	         -1.65009727	          6.03384139	         28.01340244	          4.04013577	         -1.89243165	        -10.70368001	        -12.81827214	         -2.13488508	          4.85805828	         10.14080695	         -4.96015205	          0.70369059	         -0.05317700	         21.84283010	         -0.97908668	         -1.77206664	          0.77568635	         -2.12293905	          4.03995862	        -13.46851159	         16.31936914	         -6.74850317	        -13.45797717	          5.07624771	         36.83958941	         16.68115998	         86.51662706	         86.51662706	          0.32277634	          0.07035062	          0.05000029	          0.32711889	          0.13855850	          0.07608662	          0.05000060	          0.05000009	          0.05000007	          0.05000010	          0.07121183	          0.16174862	          0.05000115	          0.05000383	          0.05000057	          0.05000044	          0.24111496	          0.07996898	          0.05000054	          0.05000083	          0.05000048	          0.05000029	          0.27096366	          0.54487846	          0.05000007	          0.05000025	          0.05000008	          0.15362632	          0.11331194	          0.12565148	          0.11983807	          0.20222356	          0.27679127	          0.21711702	          0.21043744	          0.20689060	          0.27089149	          0.05000000	          0.09663902	          0.14887294	          0.05000005	          0.05000002	          0.05000005	          0.05364952	          0.05484850	          0.05000002	          0.24308764	          0.23967821	          0.30768582	          0.35703187	          0.22907169	          0.21877004	          0.08509466	          0.05000054	          0.15942643	          0.05779724	          0.05000087	          0.09539620	          0.21181760	          0.27335820	          0.18097914	          0.11774493	          0.05000021	          0.05930931	          0.10240557	          0.05000019	          0.12229537	          0.10940812	          0.05304796	          0.05930695	          0.37239328	          0.18186832	          0.22428198	          0.05014690	          0.13126262	          0.13338089	          0.11221613	          0.05000047	          0.05000507	          0.05414186	          0.05000021	          0.05000017	          0.05000036	          0.56781964	          0.31050453	          0.17187964	          0.37863638	          0.51604387	          0.16367846	          0.06389417	          0.11481623	          0.07126069	
